<svg width="12" height="14" viewBox="0 0 12 14" fill="none" xmlns="http://www.w3.org/2000/svg">
<path d="M11.4608 6.27341C11.4085 6.32571 11.3465 6.3672 11.2782 6.39551C11.2099 6.42381 11.1367 6.43838 11.0628 6.43838C10.9889 6.43838 10.9157 6.42381 10.8474 6.39551C10.7791 6.3672 10.7171 6.32571 10.6648 6.27341L6.56281 2.17068V13.1879C6.56281 13.3371 6.50355 13.4802 6.39806 13.5857C6.29257 13.6912 6.1495 13.7504 6.00031 13.7504C5.85113 13.7504 5.70805 13.6912 5.60257 13.5857C5.49708 13.4802 5.43781 13.3371 5.43781 13.1879V2.17068L1.33578 6.27341C1.23023 6.37896 1.08708 6.43825 0.937813 6.43825C0.788546 6.43825 0.645392 6.37896 0.539844 6.27341C0.434296 6.16786 0.375 6.02471 0.375 5.87544C0.375 5.72617 0.434296 5.58302 0.539844 5.47747L5.60234 0.414974C5.65458 0.362674 5.71662 0.321185 5.78491 0.292878C5.8532 0.26457 5.92639 0.25 6.00031 0.25C6.07423 0.25 6.14743 0.26457 6.21572 0.292878C6.284 0.321185 6.34604 0.362674 6.39828 0.414974L11.4608 5.47747C11.5131 5.52971 11.5546 5.59175 11.5829 5.66004C11.6112 5.72832 11.6258 5.80152 11.6258 5.87544C11.6258 5.94936 11.6112 6.02256 11.5829 6.09085C11.5546 6.15913 11.5131 6.22117 11.4608 6.27341Z" fill="#D20023"/>
</svg>
