<svg width="81" height="58" viewBox="0 0 81 58" fill="none" xmlns="http://www.w3.org/2000/svg">
<g clip-path="url(#clip0_5_565)">
<path d="M53.1449 24.3364C45.0514 8.45297 32.1347 16.3203 32.1347 16.3203C32.1347 16.3203 29.3666 17.9219 30.6727 19.5422C30.6727 19.5422 31.7662 20.6098 32.9621 20.6618C32.8998 19.9754 34.199 18.729 34.5416 18.4128C34.5761 18.382 34.6004 18.36 34.6137 18.3486L34.623 18.3393C36.3366 16.784 38.5301 14.2591 48.4959 21.169C46.1842 21.3047 40.9662 19.0123 40.3315 22.5455L47.2165 22.213C43.4237 23.4192 40.773 25.9181 35.8688 25.5089C35.8688 25.5089 35.2083 25.4422 34.4376 25.0566C35.4476 28.2443 37.0575 35.9568 32.464 43.8218C32.464 43.8218 35.6635 43.6442 36.9093 42.2112C36.9093 42.2112 34.1982 47.8788 30.5261 48.9699C30.5261 48.9699 41.3837 50.9556 51.3224 40.3434C51.3224 40.3434 51.5124 44.83 49.6238 47.8686C49.6238 47.8686 61.2384 40.2203 53.1449 24.3364ZM35.8109 20.6736C35.8042 20.6776 35.7972 20.681 35.7899 20.6838C35.7137 20.7183 35.6392 20.7488 35.5695 20.776C35.5315 20.7919 35.4954 20.8057 35.459 20.8191C35.1913 20.9191 35.0042 20.963 34.9855 20.9723C34.9855 20.9723 36.8019 22.7243 38.0356 21.4368C38.4224 21.0341 38.3863 20.594 38.2089 20.2176C37.9554 19.6714 37.4062 19.2516 37.4062 19.2516C37.3803 19.3037 37.3519 19.3557 37.3252 19.4044C37.3252 19.4085 37.3199 19.4118 37.3183 19.4154C37.2904 19.4622 37.2616 19.5073 37.2321 19.5495C37.2283 19.5564 37.2238 19.5628 37.2187 19.5686C37.1956 19.6024 37.1713 19.6349 37.147 19.6674C37.134 19.6828 37.1227 19.6983 37.1102 19.7125C37.1064 19.718 37.1022 19.7232 37.0976 19.7279C37.0782 19.7531 37.0571 19.7779 37.0368 19.8015C36.9963 19.8474 36.953 19.8917 36.9097 19.9348C36.8773 19.9689 36.8437 20.001 36.8088 20.0319C36.7967 20.0437 36.7833 20.0539 36.7728 20.0652C36.7558 20.0803 36.7396 20.0937 36.723 20.1059C36.6494 20.0262 36.5507 19.9743 36.4435 19.9592C36.3617 19.9476 36.2782 19.9582 36.2018 19.9897C36.1253 20.0212 36.0586 20.0726 36.0085 20.1385C35.9583 20.2045 35.9266 20.2826 35.9165 20.3649C35.9064 20.4473 35.9183 20.5308 35.951 20.607C35.947 20.609 35.9438 20.6114 35.9413 20.6122C35.896 20.6342 35.8522 20.6545 35.8097 20.6736H35.8109ZM30.9967 21.7786C30.8547 21.555 30.6946 21.3435 30.518 21.1462C20.5209 21.7827 22.2292 27.5059 22.2292 27.5059C22.3505 27.4246 22.4736 27.3478 22.5986 27.2755C26.3327 25.146 31.4422 28.1752 31.4422 28.1752C32.7471 25.1789 31.6876 22.847 30.9967 21.7802V21.7786Z" fill="black"/>
<path d="M54.8937 23.4399C54.4308 22.5291 53.9218 21.6426 53.3689 20.7838C54.5328 19.2862 54.818 17.6858 54.6155 16.2342L57.51 17.6375L56.9171 13.9149C56.5639 11.6996 55.6049 10.0168 54.0663 8.91626C53.1348 8.25059 52.1462 7.91328 51.269 7.75113C51.3455 7.62149 51.4265 7.49511 51.5071 7.38294L53.0372 5.31765L50.6513 4.37523C50.0198 4.12039 49.3656 3.92608 48.6976 3.7949L48.677 3.79043C48.1473 3.6794 47.6068 3.6295 47.0659 3.64169C46.1789 3.65998 45.5528 3.82741 45.5005 3.84245H45.4965C45.4093 3.54023 45.3549 3.22942 45.3345 2.91546L45.2361 0.842859L43.1758 1.05093C40.3578 1.33541 38.4746 2.50582 37.2466 3.72662C37.2285 3.45213 37.2264 3.1768 37.2402 2.90205L37.424 0L34.6745 0.902599C34.5595 0.9408 34.4457 0.979001 34.3347 1.01761L33.9937 1.13953C30.3944 2.46477 28.19 4.50365 27.4351 7.20616C26.4335 10.7901 28.4419 14.3314 29.5411 15.9135C29.034 16.4666 28.5711 17.177 28.4148 18.0199C28.3314 18.4712 28.3436 18.935 28.4504 19.3813C25.0136 19.8836 22.599 21.1129 21.2556 23.0482C20.4747 24.1667 20.0897 25.5155 20.1621 26.8792C20.1621 26.8792 20.2229 27.8139 20.7907 29.5537C20.7907 29.5537 23.3572 28.8746 25.9779 30.3092L26.4015 30.5583C20.9936 32.6716 19.1682 33.6351 18.2805 34.8425C18.2278 34.9161 18.1764 34.9908 18.1286 35.0664C17.8053 35.5755 17.6038 36.1527 17.5398 36.7529C17.4759 37.3531 17.5513 37.96 17.7601 38.5261C17.9763 39.1161 18.324 39.6487 18.7765 40.0834C19.2291 40.5181 19.7746 40.8433 20.3715 41.0343C20.4233 41.051 20.4764 41.0664 20.5286 41.0819C20.5286 41.0819 20.6951 43.3467 19.118 44.6988C19.2326 44.7483 24.6584 47.0558 31.946 45.8249L31.9432 45.8269C31.8699 45.8675 30.4718 46.6978 28.2273 47.5984C27.2642 47.984 26.1456 48.3843 24.9063 48.7416C24.9063 48.7416 29.5589 51.8708 36.7226 50.7435C36.7444 50.7398 36.7659 50.7361 36.789 50.7313C40.0974 50.1542 44.3066 48.7294 48.6089 45.4518C48.4392 45.9313 48.2206 46.3919 47.9565 46.8262L45.6261 50.5744C45.6261 50.5744 49.602 50.4972 52.8683 47.641C54.2156 46.2543 55.3345 44.6612 56.1828 42.9216C58.1054 38.9617 59.4423 32.3684 54.8937 23.4399ZM31.4422 28.1752C31.4422 28.1752 26.3327 25.146 22.599 27.2755C22.474 27.347 22.3509 27.4238 22.2296 27.5059C22.2296 27.5059 20.5209 21.7827 30.518 21.1463C30.6946 21.3435 30.8547 21.555 30.9967 21.7786C31.6876 22.847 32.7471 25.1789 31.4422 28.1752ZM49.6238 47.8686C51.5124 44.83 51.3224 40.3434 51.3224 40.3434C41.3837 50.9556 30.5261 48.9704 30.5261 48.9704C34.1982 47.8792 36.9093 42.2116 36.9093 42.2116C35.6635 43.6446 32.464 43.8222 32.464 43.8222C37.0575 35.9568 35.4476 28.2443 34.4404 25.0558C34.3906 24.9001 34.3436 24.7558 34.2974 24.6234C34.0581 23.917 33.8787 23.5261 33.8787 23.5261C36.7112 25.1923 40.0788 23.8049 40.0788 23.8049C38.0003 23.9065 36.7335 23.0465 36.7335 23.0465C39.575 23.1051 39.8799 20.3684 39.8799 20.3684C40.7373 19.098 42.9264 19.3285 42.9264 19.3285C36.7934 15.7095 35.4703 19.5625 33.9645 20.4257C33.6602 20.5998 33.3123 20.6819 32.9625 20.6622C31.7658 20.6102 30.6731 19.5426 30.6731 19.5426C29.367 17.9236 32.1351 16.3207 32.1351 16.3207C32.1351 16.3207 45.0514 8.45298 53.1449 24.3364C61.2384 40.2199 49.6238 47.8686 49.6238 47.8686ZM35.915 20.3558C35.9234 20.2949 35.9437 20.2363 35.9747 20.1834C36.0058 20.1304 36.0469 20.0841 36.0958 20.0471C36.1448 20.0101 36.2005 19.9832 36.2598 19.9679C36.3191 19.9526 36.3809 19.9492 36.4415 19.958C36.5487 19.9731 36.6474 20.0249 36.7209 20.1047C36.7376 20.0909 36.7537 20.0774 36.7708 20.064C36.7813 20.0526 36.7947 20.0425 36.8068 20.0307C36.8416 19.9998 36.8752 19.9677 36.9076 19.9336C36.951 19.8905 36.9927 19.8462 37.0348 19.8003C37.0555 19.7767 37.0753 19.7519 37.0956 19.7267C37.1002 19.722 37.1044 19.7168 37.1081 19.7113C37.1207 19.6971 37.132 19.6816 37.145 19.6662C37.1693 19.6337 37.1936 19.6011 37.2167 19.5674C37.2218 19.5616 37.2263 19.5552 37.23 19.5483C37.2596 19.5077 37.2884 19.4609 37.3163 19.4142C37.3163 19.4105 37.3212 19.4073 37.3232 19.4032C37.3511 19.3545 37.3795 19.3024 37.4042 19.2504C37.4042 19.2504 37.9534 19.6702 38.2069 20.2164C38.3843 20.5944 38.4203 21.0345 38.0335 21.4356C36.7999 22.7231 34.9835 20.9711 34.9835 20.9711C35.0021 20.9618 35.1892 20.9179 35.4569 20.8179C35.4934 20.8045 35.5294 20.7907 35.5675 20.7748C35.6372 20.7476 35.7117 20.7171 35.7878 20.6826C35.7951 20.6798 35.8022 20.6764 35.8089 20.6724C35.8494 20.6533 35.8951 20.6318 35.9381 20.611C35.9405 20.611 35.9437 20.6078 35.9478 20.6058C35.9142 20.5275 35.9029 20.4414 35.915 20.357V20.3558Z" fill="black"/>
<path d="M31.4422 28.1752C31.4422 28.1752 26.3327 25.146 22.599 27.2755C22.474 27.347 22.3509 27.4238 22.2296 27.5059C22.2296 27.5059 20.5209 21.7827 30.518 21.1462C30.6946 21.3434 30.8547 21.5549 30.9967 21.7786C31.6876 22.847 32.7471 25.1789 31.4422 28.1752Z" fill="#A36800"/>
<path d="M31.4422 28.1752C31.4422 28.1752 26.3327 25.146 22.599 27.2755C22.5711 25.6524 23.4361 22.2602 30.9971 21.7786C31.6876 22.847 32.7471 25.1789 31.4422 28.1752Z" fill="#DD9200"/>
<path d="M24.0874 27.6754C24.0874 27.6754 26.4177 27.742 29.358 30.2681C29.358 30.2681 30.5325 29.6334 30.8999 28.964C30.9015 28.9648 27.442 26.5887 24.0874 27.6754Z" fill="#DD9200"/>
<path d="M33.3072 25.8677C33.3072 25.8677 35.8858 39.5307 29.6934 42.6973C29.6934 42.6973 31.3984 39.6851 30.8792 38.3525C30.8792 38.3525 29.1252 43.037 26.0573 42.9192C26.0573 42.9192 28.3516 40.9079 28.4784 38.6963C28.4784 38.6963 25.6596 42.0235 22.2633 42.384C22.2633 42.384 24.7018 41.0229 24.8468 38.6825C24.8468 38.6825 22.7646 39.7298 20.9636 39.1568C19.6891 38.7504 19.0678 37.2561 19.7855 36.1239C19.8094 36.0861 19.8345 36.0491 19.8616 36.0121C20.5076 35.1327 22.8234 34.0692 27.1666 32.3733C31.5098 30.6774 32.9265 28.7783 33.3072 25.8677Z" fill="#D20023"/>
<path d="M24.4993 38.8357C23.8326 39.1023 22.3175 39.5875 20.964 39.1568C19.8657 38.8085 19.2521 37.6491 19.5627 36.6107C19.6665 36.937 19.8467 37.2336 20.0882 37.4756C20.3298 37.7176 20.6257 37.8979 20.9511 38.0014C22.7529 38.5736 24.8346 37.5263 24.8346 37.5263C24.8047 37.9799 24.6909 38.4239 24.4993 38.8357Z" fill="#A30023"/>
<path d="M22.2633 42.3835C22.2633 42.3835 23.2911 41.8097 24.0517 40.7673C26.5878 39.7562 28.4662 37.5397 28.4662 37.5397C28.4334 38.1213 28.2496 38.6882 27.9985 39.2084C27.054 40.1561 24.8224 42.1133 22.2633 42.3835Z" fill="#A30023"/>
<path d="M30.8788 38.3522C30.8788 38.3522 29.126 43.0366 26.0593 42.9184C26.5143 42.501 26.9277 42.0401 27.2938 41.5423C29.5857 40.6243 30.8691 37.1968 30.8691 37.1968C30.9975 37.5264 30.9906 37.9592 30.9047 38.4245C30.8958 38.3997 30.8873 38.3757 30.8788 38.3522Z" fill="#A30023"/>
<path d="M29.6954 42.6969C29.9876 42.1628 30.2471 41.6114 30.4726 41.0457C33.131 39.0495 33.8029 34.7872 33.8264 31.1204C33.9451 35.3298 33.34 40.8315 29.6954 42.6969Z" fill="#A30023"/>
<path d="M51.4925 19.9596C51.4925 19.9596 49.6619 15.996 44.9315 14.2485C43.1734 12.0134 43.774 9.17716 43.774 9.17716C42.4845 10.8064 42.301 12.4356 42.4035 13.6003C41.9985 13.5365 41.5797 13.4906 41.1435 13.4638C39.0525 13.3333 37.3949 13.4284 36.0891 13.6369C33.6818 12.1239 33.2999 9.24503 33.2999 9.24503C32.5405 11.468 33.1116 13.2118 33.6766 14.2567C32.1752 14.8329 31.6763 15.4864 31.6763 15.4864C31.6763 15.4864 23.993 6.48074 35.2844 2.77484C35.2844 2.77484 35.0321 6.83064 37.0644 7.50282C37.0644 7.50282 38.3199 3.51732 43.3759 3.00608C43.3759 3.00608 43.4974 5.61187 44.9599 6.37914C44.9599 6.37914 46.366 4.79421 49.9337 6.2048C49.9337 6.2048 48.3853 8.29569 48.9993 9.64045C48.9993 9.64045 54.108 8.74841 54.98 14.225C54.98 14.225 53.3425 13.4674 51.3224 13.7093C51.3224 13.708 54.3603 16.9015 51.4925 19.9596Z" fill="#D20023"/>
<path d="M35.2844 2.77484C35.2639 3.24545 35.2761 3.71692 35.3209 4.18584C29.4411 6.28201 29.0948 9.89729 29.9599 12.7116C28.6116 9.74977 28.0094 5.16118 35.2844 2.77484Z" fill="#A30023"/>
<path d="M43.3755 3.00732C43.4055 3.44282 43.4774 3.87439 43.5901 4.296C38.7585 4.91737 37.5467 8.76063 37.5467 8.76063C36.6626 8.46884 36.2102 7.53495 35.983 6.57342C36.241 7.00501 36.5905 7.34557 37.0648 7.50284C37.0648 7.50284 38.3195 3.51735 43.3755 3.00732Z" fill="#A30023"/>
<path d="M49.9341 6.20361C49.7273 6.49367 49.5424 6.79877 49.3808 7.11637C46.575 6.36007 45.441 7.63533 45.441 7.63533C44.6346 7.21268 44.2357 6.23084 44.0405 5.43512C44.2633 5.82607 44.5625 6.16947 44.959 6.37754C44.9603 6.37754 46.3664 4.79221 49.9341 6.20361Z" fill="#A30023"/>
<path d="M54.8074 13.411C53.1623 10.2562 49.4817 10.8991 49.4817 10.8991C49.3027 10.5065 49.3071 10.0493 49.4047 9.59862C50.5513 9.52547 53.8051 9.6669 54.8074 13.411Z" fill="#A30023"/>
<path d="M49.6238 47.8687C51.5124 44.8301 51.3224 40.3435 51.3224 40.3435C41.3837 50.9556 30.5261 48.9704 30.5261 48.9704C34.1982 47.8792 36.9093 42.2117 36.9093 42.2117C35.6635 43.6446 32.464 43.8222 32.464 43.8222C37.0575 35.9569 35.4476 28.2443 34.4404 25.0558C34.3906 24.9001 34.3436 24.7559 34.2974 24.6234C34.0581 23.9171 33.8787 23.5261 33.8787 23.5261C36.7112 25.1923 40.0788 23.8049 40.0788 23.8049C38.0003 23.9065 36.7335 23.0466 36.7335 23.0466C39.575 23.1051 39.8799 20.3684 39.8799 20.3684C40.7373 19.0981 42.9264 19.3285 42.9264 19.3285C36.7934 15.7096 35.4703 19.5626 33.9645 20.4257C33.6602 20.5998 33.3123 20.682 32.9625 20.6623C31.7658 20.6103 30.6731 19.5427 30.6731 19.5427C29.367 17.9236 32.1351 16.3208 32.1351 16.3208C32.1351 16.3208 45.0514 8.45301 53.1449 24.3365C61.2384 40.2199 49.6238 47.8687 49.6238 47.8687Z" fill="white"/>
<path d="M49.6238 47.8686C51.5124 44.83 51.3224 40.3434 51.3224 40.3434C41.3837 50.9556 30.5261 48.9703 30.5261 48.9703C34.1982 47.8792 36.9093 42.2116 36.9093 42.2116C35.6635 43.6446 32.464 43.8221 32.464 43.8221C35.8105 38.092 35.866 32.4379 35.2585 28.5609C38.4094 27.2958 41.9268 25.1382 45.3361 21.4986C45.3361 21.4986 45.526 25.9852 43.6375 29.0238C43.6375 29.0238 48.5117 25.8132 49.7449 19.2333C50.9348 20.572 52.0822 22.2496 53.1469 24.3368C61.2384 40.2203 49.6238 47.8686 49.6238 47.8686Z" fill="#E6E6E6"/>
<path d="M49.6238 47.8686C51.5124 44.83 51.3224 40.3434 51.3224 40.3434C41.3837 50.9556 30.5261 48.9703 30.5261 48.9703C34.1982 47.8792 36.9093 42.2116 36.9093 42.2116C35.6635 43.6446 32.464 43.8222 32.464 43.8222C33.4875 42.0776 34.2707 40.202 34.7923 38.2465C38.7139 37.3735 43.7862 35.1936 48.6405 30.0137C48.6405 30.0137 48.8304 34.5003 46.9419 37.5389C46.9419 37.5389 53.3199 33.3388 53.3296 24.7006C61.061 40.3373 49.6238 47.8686 49.6238 47.8686Z" fill="white"/>
<path d="M50.5784 39.0978C50.5956 39.7979 50.5685 40.4982 50.4974 41.1948C40.7908 50.8467 30.5261 48.9703 30.5261 48.9703C31.2551 48.7545 31.9436 48.3583 32.5814 47.8621C36.45 47.7402 43.7331 46.4101 50.5784 39.0978Z" fill="#E6E6E6"/>
<path d="M49.6238 47.8686C50.1868 46.9624 50.5655 45.9285 50.8186 44.9231C53.7314 41.8674 58.2985 34.6657 52.4009 23.0912C52.2092 22.7141 52.0139 22.3501 51.8149 21.9993C52.2701 22.7145 52.7135 23.4936 53.1449 24.3364C61.2384 40.2203 49.6238 47.8686 49.6238 47.8686Z" fill="#E6E6E6"/>
<path d="M38.0344 21.4368C36.8007 22.7243 34.9843 20.9723 34.9843 20.9723C35.0029 20.9629 35.19 20.9191 35.4577 20.8191C35.4942 20.8057 35.5302 20.7919 35.5683 20.776C35.638 20.7488 35.7125 20.7183 35.7886 20.6838C35.796 20.681 35.803 20.6776 35.8097 20.6736C35.8502 20.6545 35.896 20.633 35.9389 20.6122C35.9413 20.6122 35.9446 20.609 35.9486 20.6069C36.0183 20.5732 36.0895 20.5354 36.1616 20.4923C36.19 20.4781 36.2191 20.4606 36.2479 20.4424C36.3115 20.405 36.3739 20.3647 36.4383 20.3204C36.4715 20.2989 36.5043 20.2741 36.5379 20.2509C36.5379 20.2485 36.5423 20.2477 36.5452 20.2457C36.5804 20.2201 36.6144 20.1928 36.6489 20.1644C36.6727 20.1453 36.6966 20.1258 36.7205 20.1055L36.7704 20.0648C36.7809 20.0534 36.7942 20.0433 36.8064 20.0315C36.8416 19.9994 36.8748 19.9685 36.9072 19.9344C36.9506 19.8913 36.9923 19.847 37.0344 19.8011C37.0551 19.7775 37.0749 19.7527 37.0952 19.7275C37.0998 19.7228 37.104 19.7176 37.1077 19.7121C37.1203 19.6978 37.1316 19.6824 37.1446 19.667C37.1689 19.6344 37.1932 19.6019 37.2163 19.5682C37.2214 19.5623 37.2259 19.5559 37.2296 19.5491C37.2596 19.5052 37.2883 19.4605 37.3159 19.415C37.3159 19.4113 37.3207 19.4081 37.3228 19.404C37.3507 19.3553 37.3791 19.3032 37.4038 19.2512C37.4038 19.2512 37.953 19.671 38.2065 20.2172C38.3851 20.5939 38.4211 21.0341 38.0344 21.4368Z" fill="#DD9200"/>
<path d="M37.9112 20.8252C37.1328 21.638 36.1244 21.2405 35.4857 20.8362C35.476 20.8309 35.4675 20.8244 35.4577 20.8191C35.4942 20.8057 35.5302 20.7919 35.5683 20.776C35.638 20.75 35.7113 20.7179 35.7886 20.6838C35.796 20.681 35.803 20.6776 35.8097 20.6736C35.8502 20.6545 35.8947 20.633 35.9389 20.6122C35.9413 20.6122 35.9446 20.609 35.9486 20.6069C36.0183 20.5732 36.0895 20.5354 36.1616 20.4923C36.19 20.4781 36.2191 20.4606 36.2479 20.4424C36.3115 20.405 36.3739 20.3647 36.4383 20.3204C36.4715 20.2989 36.5043 20.2741 36.5379 20.2509C36.5379 20.2485 36.5423 20.2477 36.5452 20.2457C36.5792 20.2197 36.6144 20.1928 36.6489 20.1644C36.6727 20.1453 36.6966 20.1258 36.7205 20.1055C36.7371 20.0916 36.7533 20.0782 36.7704 20.0648C36.7809 20.0534 36.7942 20.0433 36.8064 20.0315C36.8412 20.0006 36.8748 19.9685 36.9072 19.9344C36.9506 19.8913 36.9923 19.847 37.0344 19.8011C37.0551 19.7775 37.0749 19.7527 37.0952 19.7275C37.0998 19.7228 37.104 19.7176 37.1077 19.7121C37.1203 19.6966 37.1328 19.6824 37.1446 19.667C37.1689 19.6344 37.1932 19.6019 37.2163 19.5682C37.2214 19.5623 37.2259 19.5559 37.2296 19.5491C37.2592 19.5085 37.2879 19.4617 37.3159 19.415C37.3159 19.4113 37.3207 19.4081 37.3228 19.404C37.3507 19.3553 37.3791 19.3032 37.4038 19.2512C37.4038 19.2512 37.953 19.671 38.2065 20.2172C38.1887 20.4204 38.1016 20.6269 37.9112 20.8252Z" fill="white"/>
<path d="M26.0998 23.199C26.0998 23.199 27.0921 22.3683 28.9907 22.5313C28.9907 22.5313 27.8312 23.8106 26.0998 23.199Z" fill="black"/>
<path d="M26.4024 30.5583L25.9787 30.3092C26.1202 30.3848 26.2614 30.4678 26.4024 30.5583Z" fill="black"/>
<path d="M36.8376 20.4871C36.8242 20.5888 36.7777 20.6833 36.7055 20.7559C36.6332 20.8285 36.5391 20.8753 36.4378 20.8889C36.3364 20.9025 36.2334 20.8823 36.1446 20.8314C36.0558 20.7804 35.9863 20.7016 35.9466 20.607C35.9139 20.5308 35.9019 20.4473 35.912 20.365C35.9221 20.2826 35.9539 20.2045 36.004 20.1385C36.0541 20.0726 36.1209 20.0212 36.1973 19.9897C36.2738 19.9582 36.3572 19.9477 36.4391 19.9592C36.4998 19.9675 36.5583 19.9877 36.6112 20.0188C36.6641 20.0499 36.7103 20.0912 36.7471 20.1404C36.784 20.1895 36.8108 20.2455 36.826 20.305C36.8412 20.3646 36.8444 20.4266 36.8356 20.4875L36.8376 20.4871Z" fill="black"/>
<path d="M81 40.6454V44.5752C81 45.4217 80.7943 46.1329 80.3872 46.6885C80.0738 47.1176 79.6489 47.485 79.0912 47.8113L79.0758 47.8203C78.7558 48.0005 78.4203 48.1518 78.0735 48.2722C77.7018 48.4041 77.3222 48.5127 76.937 48.5973C76.1162 48.7741 75.2793 48.8646 74.4398 48.8671C73.3545 48.8725 72.2745 48.7146 71.2359 48.3986C70.1638 48.0653 69.2109 47.5476 68.4057 46.8604C67.8624 46.3954 67.39 45.8531 67.0036 45.2506V46.9384L66.3961 47.548C66.0215 47.9239 65.5456 48.2132 64.9786 48.4099C65.0142 48.4396 65.0515 48.4681 65.0863 48.4985C65.6359 48.9911 66.2912 49.8965 66.2912 51.4181V55.7799L64.8162 56.2232C64.6201 56.2794 64.42 56.3201 64.2176 56.3452C63.9864 56.3774 63.7532 56.3935 63.5198 56.3935C63.2802 56.3945 63.0409 56.375 62.8046 56.3354C62.5925 56.2999 62.3853 56.2395 62.1873 56.1554L61.963 56.2228C61.7669 56.279 61.5668 56.3198 61.3644 56.3448C61.1332 56.377 60.9 56.3931 60.6666 56.3931C60.4269 56.394 60.1877 56.3746 59.9513 56.335C59.5286 56.2655 59.1287 56.095 58.7853 55.838C58.7594 55.8185 58.7355 55.7973 58.7104 55.777C58.4385 55.951 58.1468 56.0918 57.8417 56.1964C57.7425 56.2314 57.6392 56.2619 57.5379 56.2903V57.3498L56.0629 57.7931C55.8769 57.8464 55.6874 57.8871 55.4959 57.9151C55.2508 57.9543 55.003 57.974 54.7548 57.974C54.5152 57.9749 54.2759 57.9555 54.0396 57.9159C53.6175 57.8469 53.2182 57.6769 52.8756 57.4201C52.5444 57.1697 52.2786 56.8426 52.1008 56.4667C52.017 56.4732 51.9319 56.4777 51.8461 56.4777C51.5903 56.4779 51.3355 56.447 51.0871 56.3858C50.8715 56.6709 50.616 56.9233 50.3285 57.1352C49.89 57.4578 49.3936 57.6923 48.8665 57.8261C48.3962 57.9456 47.9127 58.0049 47.4275 58.0028C46.5491 58.0028 45.8274 57.8643 45.2211 57.5769C44.6666 57.3223 44.2069 56.8977 43.9081 56.3643C43.7295 56.384 43.5499 56.3943 43.3702 56.3952C43.131 56.3961 42.8922 56.3766 42.6562 56.337C42.4438 56.3015 42.2362 56.2411 42.0378 56.157L41.8146 56.2245C41.6185 56.2806 41.4184 56.3213 41.216 56.3464C40.9844 56.3786 40.7508 56.3948 40.517 56.3947C40.2778 56.3957 40.0389 56.3762 39.803 56.3366C39.5943 56.302 39.3904 56.2429 39.1955 56.1607L38.5475 56.2777C38.4726 56.2919 38.3604 56.3106 38.2113 56.3354C37.9684 56.3749 37.7228 56.3947 37.4767 56.3947C37.2373 56.3957 36.9983 56.3762 36.7623 56.3366C36.4722 56.2877 36.192 56.1916 35.9328 56.0522C35.4387 56.324 34.8393 56.4586 34.114 56.4586C33.2922 56.4586 32.577 56.2773 31.9792 55.9209C31.447 56.2814 30.7784 56.4586 29.9457 56.4586C29.0421 56.4586 28.2682 56.2399 27.6372 55.8108C27.5562 55.862 27.4752 55.9124 27.391 55.9571C26.9768 56.1755 26.5285 56.3215 26.0654 56.3887C25.7339 56.4397 25.3992 56.4659 25.0638 56.4671C24.5016 56.47 23.9424 56.3837 23.407 56.2115C22.898 56.0468 22.4235 55.7899 22.0069 55.4535C21.5946 55.7914 21.1227 56.0485 20.6157 56.2115C20.0742 56.3846 19.5089 56.4709 18.9406 56.4671C18.3015 56.4671 17.7463 56.3858 17.2433 56.2147C16.7933 56.0673 16.3677 55.8535 15.9805 55.5803C15.1705 55.0037 14.7047 54.1173 14.7047 53.1464V48.7318C13.8316 48.6704 13.1208 48.4388 12.5473 48.0283C12.1934 47.778 11.894 47.4579 11.6676 47.0875C11.5461 47.1993 11.4218 47.3082 11.289 47.4127C10.0622 48.3774 8.36041 48.8667 6.23011 48.8667C5.55096 48.8696 4.87303 48.8089 4.20511 48.6855C3.56427 48.5692 2.94181 48.3675 2.35426 48.0856C1.69047 47.7581 1.14696 47.3232 0.742362 46.7925C0.256113 46.1568 -0.0051066 45.3766 -2.90416e-06 44.5752C-2.90416e-06 43.7218 0.277422 42.9314 0.802302 42.297C0.974935 42.0875 1.16458 41.8927 1.3693 41.7146C1.00509 41.3297 0.704323 40.8891 0.478302 40.4093C0.161997 39.7387 -2.90416e-06 38.9564 -2.90416e-06 38.0827C-2.90416e-06 36.347 0.710772 34.8746 2.05537 33.8249C3.26146 32.8821 4.87336 32.4025 6.84936 32.4025C7.47452 32.3998 8.09889 32.4477 8.71641 32.5456C9.32863 32.6382 9.925 32.816 10.4883 33.0739C11.1262 33.3766 11.6478 33.7895 12.0406 34.3016C12.5105 34.9158 12.7628 35.6698 12.7575 36.4441C12.7575 37.1845 12.5667 37.8531 12.1933 38.431C12.0385 38.6712 11.8613 38.8962 11.664 39.1027C11.6879 39.1235 11.711 39.1434 11.7349 39.1661C12.0698 39.4756 12.3606 39.83 12.5991 40.2191C12.7571 39.7355 12.9231 39.2437 13.0932 38.7512C13.3092 38.1229 13.5135 37.5297 13.706 36.9716C13.9085 36.3872 14.0839 35.8861 14.2483 35.4391C14.4148 34.9835 14.5423 34.6442 14.6367 34.4003L14.8971 33.7298L15.5164 33.364C15.9084 33.1336 16.3895 32.9479 17.0307 32.7797C17.6371 32.6207 18.2612 32.54 18.888 32.5395C19.7729 32.5395 20.589 32.6781 21.318 32.9524C22.6711 33.4636 23.245 34.389 23.4876 35.0758L23.4908 35.0835V35.0924C23.7294 35.7833 23.9894 36.5908 24.264 37.4975C24.5142 38.322 24.7678 39.1832 25.0173 40.0577V35.9044C25.0173 34.8604 25.4668 34.1894 25.8447 33.8115C26.2124 33.4425 26.6773 33.1572 27.2217 32.965C27.8142 32.7553 28.4998 32.611 29.3216 32.5216C30.0647 32.4423 30.8115 32.403 31.5588 32.4037C33.6105 32.4037 35.2038 32.7772 36.4354 33.5461C37.4111 34.1557 38.0959 35.0307 38.4527 36.0869C38.7902 35.5132 39.2048 34.9887 39.6847 34.5284C40.4415 33.8065 41.3399 33.2506 42.3225 32.8963C43.2828 32.5435 44.3256 32.3655 45.4228 32.3655C46.5199 32.3655 47.562 32.5435 48.523 32.8963C49.5035 33.251 50.4012 33.8034 51.1608 34.5194C51.6065 34.9431 51.9965 35.4222 52.3211 35.9451V34.7498L52.6945 34.2138C53.1287 33.592 53.7475 33.1377 54.5418 32.8634C55.1415 32.6583 55.7711 32.555 56.4048 32.5578C57.0935 32.5564 57.7777 32.6692 58.4298 32.8918C58.8735 33.0462 59.2828 33.2863 59.6346 33.5985V33.2218L61.1586 32.8044C61.4594 32.7276 61.7649 32.6707 62.0731 32.6342C62.447 32.5838 62.8238 32.5583 63.2011 32.5578C64.1937 32.5578 64.9928 32.7719 65.6448 33.2121C66.262 33.629 66.9979 34.4833 66.9979 36.1743V36.2149C67.42 35.5455 67.9428 34.9457 68.5479 34.4369C69.3813 33.7412 70.3415 33.2146 71.3752 32.8865C72.3763 32.5654 73.4211 32.4023 74.4722 32.4029C76.057 32.4029 77.3275 32.6793 78.3582 33.247C80.2188 34.274 80.4962 35.787 80.4962 36.5973C80.5001 37.1886 80.3604 37.7719 80.0892 38.2968C80.5099 38.7227 81 39.4721 81 40.6454Z" fill="black"/>
<path d="M16.7771 48.1917C16.8747 48.1656 16.9737 48.1454 17.0736 48.1311C17.2114 48.1094 17.3508 48.0985 17.4903 48.0986C17.6124 48.0977 17.7343 48.1071 17.8548 48.1267C17.9534 48.1413 18.047 48.1795 18.1278 48.238C18.204 48.2963 18.2619 48.3753 18.2947 48.4656C18.3357 48.5868 18.3545 48.7144 18.3501 48.8423V49.7531C18.4921 49.6949 18.6396 49.6513 18.7904 49.623C18.9418 49.5971 19.0952 49.5846 19.2488 49.5856C19.5372 49.5842 19.8233 49.6378 20.0916 49.7437C20.3549 49.8478 20.5945 50.0043 20.7959 50.2038C21.0069 50.4167 21.171 50.6717 21.2775 50.9523C21.3944 51.2504 21.453 51.5942 21.4533 51.9838C21.4533 52.3869 21.393 52.7391 21.2726 53.0404C21.1632 53.3251 20.9907 53.5811 20.768 53.789C20.5391 53.9943 20.269 54.148 19.9758 54.2396C19.6418 54.3451 19.2932 54.3968 18.9431 54.3929C18.5356 54.3929 18.1899 54.3449 17.9059 54.249C17.6486 54.1664 17.4051 54.0457 17.1833 53.891C16.9112 53.6991 16.7752 53.4512 16.7755 53.1473L16.7771 48.1917ZM18.9447 53.1456C19.2285 53.1456 19.4493 53.0481 19.6073 52.853C19.7652 52.658 19.8439 52.3682 19.8434 51.9838C19.8434 51.5936 19.7631 51.3024 19.6024 51.11C19.4418 50.9177 19.2258 50.8216 18.9544 50.8219C18.8467 50.82 18.7392 50.8326 18.6349 50.8593C18.5347 50.888 18.4371 50.9253 18.3433 50.9706V52.9969C18.4195 53.0442 18.5022 53.0802 18.5887 53.1038C18.7048 53.1343 18.8247 53.1484 18.9447 53.1456Z" fill="white"/>
<path d="M25.0695 54.3912C24.7261 54.394 24.3843 54.3423 24.057 54.238C23.7567 54.1422 23.4793 53.9856 23.2417 53.7779C23.0041 53.565 22.8174 53.3011 22.6954 53.0058C22.5625 52.6961 22.4961 52.3336 22.4961 51.9183C22.4961 51.5095 22.5625 51.1573 22.6954 50.8617C22.8113 50.5908 22.9844 50.3483 23.2027 50.151C23.4209 49.9536 23.6792 49.8061 23.9598 49.7185C24.2345 49.6292 24.5215 49.5836 24.8103 49.5836C25.1146 49.5799 25.4173 49.6302 25.7041 49.7323C25.9593 49.8236 26.1949 49.9624 26.3987 50.1415C26.5924 50.3148 26.7468 50.5278 26.8515 50.7662C26.961 51.0149 27.0162 51.2843 27.0135 51.5562C27.0135 51.767 26.9549 51.9282 26.8377 52.0398C26.7205 52.1514 26.5569 52.2227 26.3469 52.2536L24.0586 52.5974C24.0926 52.6989 24.1472 52.7922 24.219 52.8714C24.2908 52.9506 24.3782 53.0139 24.4758 53.0574C24.7018 53.1632 24.9489 53.2157 25.1983 53.2106C25.4409 53.212 25.6825 53.1792 25.9159 53.1131C26.1088 53.0619 26.2942 52.9853 26.4672 52.8855C26.5697 52.9514 26.6554 53.0405 26.7174 53.1456C26.7834 53.2515 26.8187 53.3738 26.8191 53.4988C26.8191 53.7778 26.6895 53.9855 26.4303 54.1218C26.2216 54.2304 25.9961 54.3027 25.7633 54.3355C25.5337 54.3712 25.3018 54.3898 25.0695 54.3912ZM24.8103 50.7385C24.6783 50.7353 24.5472 50.7606 24.426 50.8129C24.329 50.8547 24.2419 50.9164 24.1701 50.994C24.0983 51.0717 24.0435 51.1635 24.0092 51.2636C23.9755 51.3578 23.9552 51.4563 23.9489 51.5562L25.5328 51.2961C25.5142 51.1723 25.4467 51.0483 25.3303 50.9243C25.2139 50.8002 25.0399 50.7383 24.8083 50.7385H24.8103Z" fill="white"/>
<path d="M29.8104 52.6905C29.8104 52.8514 29.8613 52.966 29.9631 53.0343C30.0649 53.1026 30.2084 53.1367 30.3936 53.1367C30.4899 53.1363 30.5861 53.1284 30.6812 53.1131C30.7691 53.1003 30.8558 53.0801 30.9404 53.053C30.997 53.1229 31.0451 53.1993 31.0838 53.2806C31.1263 53.3754 31.1469 53.4786 31.1441 53.5825C31.147 53.6925 31.1247 53.8016 31.0789 53.9015C31.0332 54.0014 30.9651 54.0895 30.88 54.1588C30.7043 54.3075 30.3938 54.3819 29.9485 54.3819C29.405 54.3819 28.9865 54.258 28.693 54.0101C28.3995 53.7622 28.2528 53.3594 28.2528 52.8019V48.8237C28.3208 48.805 28.418 48.783 28.5448 48.7631C28.678 48.741 28.8128 48.7301 28.9478 48.7306C29.2191 48.7306 29.4305 48.7787 29.582 48.8749C29.7335 48.9711 29.8092 49.1743 29.8092 49.4845V50.0794H31.0242C31.067 50.1614 31.1026 50.2469 31.1307 50.335C31.1657 50.4446 31.1829 50.559 31.1818 50.674C31.1818 50.8907 31.1338 51.0473 31.038 51.1438C30.987 51.1926 30.9266 51.2306 30.8605 51.2553C30.7945 51.2801 30.7241 51.2911 30.6536 51.2876H29.8104V52.6905Z" fill="white"/>
<path d="M33.9795 52.6905C33.9795 52.8514 34.0304 52.966 34.1322 53.0343C34.234 53.1026 34.3776 53.1367 34.5631 53.1367C34.6593 53.1363 34.7553 53.1284 34.8502 53.1132C34.9381 53.1003 35.0248 53.0802 35.1094 53.053C35.166 53.123 35.2143 53.1994 35.2532 53.2806C35.2956 53.3754 35.3161 53.4787 35.3132 53.5825C35.3161 53.6925 35.2938 53.8016 35.248 53.9015C35.2022 54.0015 35.1342 54.0895 35.0491 54.1588C34.8733 54.3076 34.5628 54.3819 34.1176 54.3819C33.5741 54.3819 33.1556 54.258 32.8621 54.0101C32.5686 53.7622 32.4219 53.3594 32.4219 52.8019V48.8237C32.4899 48.805 32.5871 48.783 32.7139 48.7631C32.8477 48.7409 32.9832 48.73 33.1189 48.7306C33.3889 48.7306 33.6003 48.7787 33.7531 48.8749C33.9059 48.9711 33.9817 49.1743 33.9803 49.4845V50.0794H35.1953C35.2381 50.1614 35.2737 50.2469 35.3018 50.3351C35.337 50.4445 35.3542 50.559 35.3528 50.674C35.3528 50.8907 35.3049 51.0473 35.2091 51.1438C35.1581 51.1927 35.0977 51.2306 35.0316 51.2553C34.9656 51.2801 34.8952 51.2911 34.8247 51.2876H33.9795V52.6905Z" fill="white"/>
<path d="M36.535 48.4705C36.5326 48.3605 36.5522 48.2511 36.5927 48.1489C36.6333 48.0466 36.694 47.9537 36.7712 47.8755C36.9288 47.7146 37.1373 47.6333 37.3965 47.6317C37.6557 47.6301 37.8641 47.7113 38.0218 47.8755C38.1734 48.0363 38.2579 48.2492 38.2579 48.4705C38.2579 48.6918 38.1734 48.9047 38.0218 49.0654C37.8641 49.2264 37.6557 49.3068 37.3965 49.3068C37.1373 49.3068 36.9288 49.2264 36.7712 49.0654C36.694 48.9873 36.6333 48.8943 36.5927 48.7921C36.5522 48.6898 36.5326 48.5805 36.535 48.4705ZM38.1838 54.2331C38.1158 54.2457 38.0157 54.2628 37.8829 54.2843C37.749 54.3061 37.6135 54.3169 37.4779 54.3168C37.3558 54.3178 37.2339 54.3085 37.1134 54.2892C37.0147 54.2743 36.921 54.236 36.84 54.1774C36.7635 54.1185 36.7043 54.0399 36.6687 53.9499C36.6242 53.8295 36.6036 53.7015 36.6084 53.5731V49.7904C36.6764 49.7778 36.7764 49.7608 36.9093 49.7392C37.0425 49.7176 37.1773 49.7067 37.3122 49.7067C37.4343 49.7058 37.5562 49.7151 37.6767 49.7344C37.7754 49.7493 37.8691 49.7876 37.9501 49.8461C38.0266 49.9052 38.0857 49.9838 38.1214 50.0737C38.1655 50.194 38.1859 50.3219 38.1814 50.45L38.1838 54.2331Z" fill="white"/>
<path d="M42.5007 51.3799C42.5007 51.1875 42.4467 51.0465 42.3387 50.9568C42.2307 50.8671 42.0841 50.8222 41.8989 50.8219C41.7759 50.8222 41.6535 50.8379 41.5344 50.8686C41.4233 50.8955 41.3181 50.9428 41.2241 51.008V54.2331C41.1284 54.2586 41.0309 54.2774 40.9325 54.2892C40.7959 54.3078 40.6582 54.3171 40.5203 54.3169C40.3982 54.3178 40.2763 54.3085 40.1558 54.2892C40.0571 54.2744 39.9633 54.236 39.8824 54.1775C39.8058 54.1185 39.7466 54.0399 39.7111 53.9499C39.6665 53.8295 39.646 53.7015 39.6507 53.5732V50.7849C39.6444 50.641 39.6816 50.4985 39.7572 50.3761C39.8359 50.2627 39.9349 50.1649 40.0492 50.0879C40.2914 49.924 40.5589 49.8016 40.841 49.7254C41.1862 49.6286 41.5433 49.5816 41.9017 49.5856C42.5997 49.5856 43.137 49.7391 43.5136 50.0461C43.8903 50.353 44.0793 50.7789 44.0806 51.3238V54.2331C43.9847 54.2586 43.8871 54.2773 43.7886 54.2892C43.6521 54.3078 43.5145 54.3171 43.3767 54.3169C43.2547 54.3177 43.1328 54.3085 43.0122 54.2892C42.9135 54.2744 42.8198 54.236 42.7388 54.1775C42.6623 54.1185 42.6031 54.0399 42.5675 53.9499C42.5233 53.8294 42.503 53.7015 42.5076 53.5732L42.5007 51.3799Z" fill="white"/>
<path d="M47.7062 49.5856C48.0308 49.5817 48.3542 49.6272 48.6652 49.7205C48.9253 49.7967 49.1714 49.9145 49.3942 50.0692C49.5082 50.1467 49.6071 50.2443 49.6862 50.3574C49.7618 50.4798 49.7989 50.6223 49.7927 50.7662V54.0173C49.7927 54.3457 49.7309 54.6292 49.6072 54.8679C49.487 55.1026 49.3143 55.3063 49.1026 55.4629C48.8773 55.6267 48.6224 55.7451 48.3521 55.8116C48.0508 55.8876 47.7411 55.925 47.4304 55.9229C46.8688 55.9229 46.4273 55.8471 46.106 55.6953C45.7847 55.5436 45.6241 55.2972 45.6241 54.9561C45.6212 54.8252 45.6516 54.6957 45.7123 54.5798C45.7601 54.4842 45.828 54.4002 45.9112 54.3335C46.1044 54.4383 46.308 54.5223 46.5187 54.5843C46.7456 54.6527 46.9812 54.6872 47.2181 54.6867C47.5519 54.6867 47.8174 54.6309 48.0148 54.5192C48.2121 54.4076 48.311 54.228 48.3112 53.9804V53.8316C48.0582 53.943 47.7495 53.9988 47.385 53.999C47.1159 54.0004 46.8484 53.958 46.5928 53.8735C46.3479 53.7928 46.1234 53.6596 45.9351 53.4829C45.7363 53.2909 45.5816 53.0578 45.4815 52.7998C45.3667 52.521 45.3096 52.1895 45.3102 51.8053C45.3102 51.4274 45.3704 51.0989 45.4908 50.8198C45.6024 50.554 45.7736 50.3176 45.991 50.129C46.2132 49.9414 46.4718 49.8022 46.7504 49.7201C47.0606 49.6281 47.3827 49.5828 47.7062 49.5856ZM48.2805 50.9336C48.2202 50.902 48.1566 50.877 48.0909 50.8593C47.9896 50.8321 47.8851 50.8196 47.7803 50.8219C47.4776 50.8219 47.2507 50.9071 47.0995 51.0775C46.9483 51.2479 46.8727 51.4917 46.8727 51.809C46.8727 52.1682 46.9483 52.427 47.0995 52.5852C47.1741 52.6632 47.2642 52.7246 47.364 52.7654C47.4637 52.8062 47.5709 52.8255 47.6786 52.8221C47.9319 52.8221 48.1325 52.7632 48.2805 52.6454V50.9336Z" fill="white"/>
<path d="M50.949 53.4898C50.942 53.2495 51.0293 53.0161 51.192 52.8396C51.3524 52.6662 51.5716 52.5794 51.8497 52.5791C52.1278 52.5788 52.3471 52.6657 52.5074 52.8396C52.6624 53.0206 52.7476 53.2512 52.7476 53.4898C52.7476 53.7284 52.6624 53.9591 52.5074 54.1401C52.3454 54.3132 52.1262 54.3999 51.8497 54.4001C51.5732 54.4004 51.354 54.3137 51.192 54.1401C51.0293 53.9636 50.9421 53.7301 50.949 53.4898Z" fill="#D20023"/>
<path d="M55.9597 49.5856C56.3091 49.5828 56.657 49.6314 56.9924 49.7299C57.2937 49.8171 57.5731 49.9676 57.8121 50.1712C58.0455 50.3766 58.2291 50.6326 58.3492 50.9198C58.4793 51.22 58.5442 51.5778 58.544 51.9931C58.544 52.3897 58.4883 52.7368 58.3771 53.0343C58.2764 53.3155 58.1152 53.5709 57.9049 53.7824C57.6965 53.9867 57.4446 54.1408 57.1682 54.2331C56.8591 54.3358 56.5351 54.386 56.2095 54.3819C55.9574 54.3837 55.7068 54.3425 55.4684 54.2599V55.8042C55.3708 55.8302 55.2719 55.8503 55.1719 55.8644C55.0341 55.8864 54.8947 55.8972 54.7552 55.8969C54.6331 55.898 54.5112 55.8888 54.3907 55.8693C54.2919 55.8546 54.1982 55.8163 54.1173 55.7575C54.0413 55.6991 53.9834 55.6201 53.9505 55.5299C53.9096 55.4088 53.8908 55.2814 53.895 55.1536V50.6918C53.8888 50.5479 53.9259 50.4054 54.0015 50.283C54.0802 50.1697 54.1793 50.072 54.2935 49.9949C54.514 49.8585 54.7548 49.758 55.0067 49.6974C55.3183 49.6196 55.6386 49.5821 55.9597 49.5856ZM55.9779 53.1367C56.6143 53.1367 56.9323 52.7555 56.9321 51.9931C56.9321 51.597 56.8534 51.3026 56.696 51.11C56.5385 50.9174 56.3116 50.8213 56.0151 50.8219C55.9087 50.8201 55.8026 50.8338 55.7001 50.8625C55.6168 50.8867 55.5361 50.9194 55.4595 50.96V53.005C55.5366 53.0436 55.6171 53.0747 55.7001 53.0981C55.7904 53.1239 55.8839 53.1369 55.9779 53.1367Z" fill="#D20023"/>
<path d="M64.2221 54.2331C64.1263 54.2586 64.0288 54.2773 63.9305 54.2892C63.7938 54.3078 63.6561 54.3171 63.5182 54.3169C63.3961 54.3177 63.2742 54.3085 63.1537 54.2892C63.0551 54.2744 62.9615 54.236 62.8807 54.1775C62.8041 54.1186 62.7448 54.04 62.7094 53.9499C62.6649 53.8295 62.6443 53.7015 62.649 53.5732V51.5099C62.649 51.256 62.5857 51.0779 62.4591 50.9755C62.3259 50.8709 62.1604 50.8165 61.9913 50.8219C61.8724 50.8214 61.754 50.8371 61.6394 50.8686C61.545 50.8925 61.4545 50.93 61.3709 50.98V54.2311C61.2749 54.2566 61.1774 54.2753 61.0789 54.2872C60.9422 54.3058 60.8045 54.315 60.6666 54.3148C60.5445 54.3157 60.4226 54.3065 60.3021 54.2872C60.2034 54.2723 60.1096 54.234 60.0287 54.1754C59.9521 54.1165 59.8929 54.0379 59.8574 53.9479C59.813 53.8274 59.7925 53.6994 59.797 53.5711V48.1824C59.8651 48.1698 59.9655 48.1531 60.0984 48.1311C60.2323 48.1094 60.3677 48.0985 60.5034 48.0986C60.6254 48.0977 60.7474 48.107 60.8679 48.1267C60.9666 48.1412 61.0604 48.1794 61.1412 48.238C61.2178 48.297 61.277 48.3756 61.3125 48.4656C61.3568 48.5861 61.3773 48.714 61.3729 48.8423V49.7531C61.4922 49.7104 61.6139 49.6747 61.7374 49.6462C61.915 49.6043 62.0969 49.584 62.2793 49.5856C62.8908 49.5856 63.3679 49.7391 63.7106 50.0461C64.0532 50.353 64.2245 50.81 64.2245 51.4168L64.2221 54.2331Z" fill="#D20023"/>
<path d="M5.85063 41.8394C5.28741 41.6468 4.77536 41.4509 4.31447 41.2517C3.88415 41.0715 3.48298 40.828 3.12417 40.5292C2.79535 40.2522 2.53009 39.9071 2.34657 39.5177C2.16081 39.1259 2.06793 38.6474 2.06793 38.0823C2.06793 36.9907 2.48724 36.1172 3.32586 35.4619C4.16448 34.8065 5.33898 34.4789 6.84936 34.4792C7.36368 34.4764 7.87739 34.5152 8.38553 34.595C8.85884 34.672 9.26519 34.7908 9.60458 34.9514C9.94397 35.1121 10.2096 35.3176 10.4016 35.5679C10.5938 35.8189 10.6954 36.128 10.6896 36.4445C10.6896 36.7786 10.6128 37.0644 10.4591 37.302C10.3099 37.5351 10.1215 37.7403 9.90225 37.9088C9.62037 37.7291 9.24237 37.5719 8.76825 37.4369C8.26157 37.2974 7.73805 37.229 7.21265 37.2337C6.63674 37.2337 6.21432 37.3139 5.9454 37.4743C5.67648 37.6347 5.54148 37.8371 5.5404 38.0815C5.5404 38.2741 5.62356 38.4315 5.78988 38.5537C5.9562 38.6759 6.2069 38.7886 6.54197 38.8918L7.55973 39.2194C8.76258 39.6052 9.68747 40.0965 10.3344 40.6934C10.9813 41.2902 11.3045 42.103 11.304 43.1317C11.304 44.2238 10.8752 45.1069 10.0177 45.781C9.16016 46.4551 7.89993 46.7918 6.237 46.7913C5.68641 46.7947 5.13671 46.7462 4.59513 46.6466C4.13644 46.5657 3.69071 46.4231 3.26997 46.2227C2.89197 46.0369 2.59754 45.8056 2.38667 45.529C2.17665 45.2563 2.065 44.9202 2.06996 44.5756C2.06996 44.2031 2.17877 43.8852 2.39639 43.6218C2.59304 43.3764 2.83404 43.1704 3.10676 43.0147C3.46532 43.2975 3.9038 43.5414 4.4222 43.7462C4.96459 43.9562 5.54186 44.0607 6.1232 44.0542C6.75014 44.0542 7.19172 43.9579 7.44795 43.7653C7.70418 43.5727 7.8323 43.3479 7.8323 43.0911C7.8323 42.8342 7.72983 42.6384 7.5249 42.5034C7.31997 42.3685 7.03202 42.2368 6.66104 42.1084L5.85063 41.8394Z" fill="white"/>
<path d="M16.5645 35.153C16.7821 35.0251 17.1117 34.9032 17.5531 34.7872C17.9887 34.6723 18.4372 34.614 18.8876 34.6137C19.5275 34.6137 20.0945 34.7068 20.5886 34.8929C21.0827 35.079 21.3995 35.3714 21.5391 35.7699C21.7697 36.4375 22.0193 37.2145 22.288 38.101C22.5566 38.9874 22.8254 39.9026 23.0943 40.8466C23.3643 41.791 23.6268 42.7223 23.8816 43.6405C24.1365 44.5587 24.3606 45.3715 24.5539 46.0789C24.4 46.259 24.1696 46.4034 23.8626 46.5121C23.5556 46.6207 23.1911 46.6749 22.7691 46.6746C22.5078 46.6793 22.2468 46.6534 21.9915 46.5974C21.8047 46.557 21.6282 46.4782 21.4731 46.3662C21.3344 46.2579 21.2226 46.1188 21.1467 45.9598C21.0561 45.7742 20.9822 45.5808 20.9259 45.3819L20.5805 44.0522H17.1027C17.0001 44.4377 16.8977 44.836 16.7954 45.247C16.693 45.658 16.5907 46.0561 16.4884 46.4414C16.3027 46.5067 16.1134 46.561 15.9214 46.6039C15.6845 46.6525 15.443 46.6752 15.2013 46.6714C14.5484 46.6714 14.0652 46.559 13.7518 46.3341C13.4383 46.1092 13.2814 45.7976 13.2812 45.3994C13.2815 45.2169 13.3074 45.0354 13.3581 44.8601C13.4091 44.6805 13.4668 44.4685 13.5311 44.2241C13.6202 43.8776 13.7449 43.4473 13.9053 42.9334C14.0657 42.4194 14.2412 41.864 14.4318 41.2672C14.6237 40.6711 14.8285 40.0577 15.0462 39.427C15.2638 38.7963 15.4686 38.2022 15.6605 37.6446C15.8525 37.0859 16.028 36.5882 16.187 36.1515C16.3461 35.7148 16.4719 35.3819 16.5645 35.153ZM18.8685 37.6389C18.6898 38.1786 18.4888 38.7791 18.2655 39.4404C18.0422 40.1018 17.8397 40.773 17.658 41.4541H20.039C19.8594 40.7605 19.6771 40.0832 19.4918 39.4222C19.3066 38.7611 19.1369 38.1671 18.9828 37.6401L18.8685 37.6389Z" fill="white"/>
<path d="M31.6001 46.7913C31.3822 46.7913 31.1257 46.7849 30.8306 46.7722C30.5355 46.7595 30.2315 46.7337 29.9186 46.695C29.6048 46.6565 29.2943 46.6083 28.9871 46.5503C28.6983 46.498 28.4153 46.4174 28.1422 46.3097C27.4381 46.0388 27.086 45.5699 27.086 44.9032V35.9052C27.086 35.6343 27.1596 35.4256 27.3067 35.279C27.4539 35.1324 27.6556 35.0136 27.9118 34.9226C28.3468 34.7682 28.8908 34.6557 29.5439 34.5853C30.2136 34.5137 30.8866 34.4783 31.56 34.4792C33.1984 34.4792 34.4593 34.7554 35.3427 35.3078C36.2262 35.8603 36.6678 36.7144 36.6675 37.8701C36.6675 38.4486 36.5012 38.9464 36.1685 39.3636C35.8359 39.7809 35.3884 40.0859 34.8259 40.2788C35.4433 40.4451 36 40.7863 36.4293 41.2615C36.8578 41.737 37.0722 42.3342 37.0725 43.0533C37.0725 44.3248 36.602 45.2657 35.6611 45.8761C34.7201 46.4865 33.3665 46.7916 31.6001 46.7913ZM30.3519 39.3734H31.752C32.3023 39.3734 32.7023 39.2706 32.952 39.0649C33.2018 38.8593 33.3272 38.5578 33.3283 38.1603C33.3283 37.8133 33.1842 37.537 32.8961 37.3317C32.608 37.1263 32.176 37.0235 31.6001 37.0232C31.4082 37.0232 31.187 37.0301 30.9375 37.0427C30.7414 37.0502 30.5458 37.0695 30.3519 37.1004V39.3734ZM30.3519 44.0746C30.5781 44.1335 30.8098 44.169 31.0432 44.1806C31.3249 44.1996 31.5936 44.2092 31.8496 44.2095C32.3626 44.2095 32.7883 44.1035 33.1266 43.8917C33.4649 43.6798 33.6344 43.349 33.6352 42.8993C33.6352 42.4755 33.4944 42.1737 33.2128 41.9938C32.9312 41.8139 32.5025 41.724 31.9266 41.724H30.3519V44.0746Z" fill="white"/>
<path d="M39.3571 40.6255C39.3571 39.623 39.514 38.7367 39.8277 37.9665C40.1414 37.1962 40.5702 36.5509 41.114 36.0304C41.6652 35.5059 42.3193 35.1023 43.0345 34.8454C43.7705 34.5744 44.567 34.439 45.424 34.439C46.281 34.439 47.0775 34.5744 47.8135 34.8454C48.5307 35.1038 49.1876 35.5071 49.7433 36.0304C50.2933 36.5506 50.7253 37.1959 51.0393 37.9665C51.3533 38.737 51.5102 39.6233 51.5099 40.6255C51.5099 41.6279 51.3563 42.5175 51.049 43.2943C50.7418 44.071 50.3169 44.7196 49.7745 45.2401C49.2208 45.7661 48.5634 46.1698 47.8447 46.4251C47.1024 46.696 46.2959 46.8315 45.4252 46.8315C44.5544 46.8315 43.748 46.6933 43.0057 46.417C42.2879 46.1566 41.6335 45.7462 41.0856 45.2129C40.5481 44.6864 40.1256 44.0378 39.8184 43.267C39.5111 42.4963 39.3574 41.6157 39.3571 40.6255ZM42.8134 40.6255C42.8134 41.7948 43.0503 42.6683 43.5241 43.2459C43.998 43.8235 44.6315 44.1126 45.4248 44.1132C46.2313 44.1132 46.8713 43.8241 47.3449 43.2459C47.8185 42.6677 48.0554 41.7943 48.0557 40.6255C48.0557 39.4697 47.822 38.6027 47.3546 38.0246C46.8872 37.4464 46.2505 37.1573 45.4442 37.1573C44.6504 37.1573 44.0135 37.4432 43.5334 38.0148C43.0534 38.5865 42.8134 39.4567 42.8134 40.6255Z" fill="white"/>
<path d="M64.9336 46.0784C64.7541 46.2586 64.4948 46.3967 64.1556 46.4926C63.8165 46.5885 63.4102 46.6367 62.9366 46.6372C62.48 46.64 62.0261 46.5683 61.5924 46.4251C61.1698 46.2842 60.8242 45.9438 60.5556 45.4038L58.6545 41.5118C58.4626 41.1138 58.2898 40.7382 58.1361 40.3849C57.9825 40.0316 57.816 39.6237 57.6368 39.1612L57.5217 39.1803C57.5728 39.8739 57.6015 40.5805 57.608 41.3001C57.6145 42.0197 57.6177 42.7261 57.6177 43.4194V46.406C57.4058 46.4574 57.1911 46.4959 56.9746 46.5214C56.6913 46.5596 56.4058 46.5789 56.12 46.5791C55.8692 46.5817 55.6187 46.5624 55.3712 46.5214C55.175 46.4923 54.9897 46.4127 54.8334 46.2902C54.6852 46.1643 54.5727 46.0016 54.5069 45.8184C54.4305 45.6192 54.3922 45.359 54.3919 45.0377V35.4041C54.5709 35.1473 54.846 34.9547 55.2173 34.8262C55.6007 34.6957 56.0031 34.6305 56.408 34.6332C56.8684 34.6313 57.326 34.7063 57.7619 34.8551C58.1904 35.0027 58.5328 35.3399 58.789 35.8666L60.7095 39.7586C60.9015 40.1569 61.0743 40.5325 61.2279 40.8856C61.3815 41.2386 61.548 41.6465 61.7273 42.1092L61.8232 42.0901C61.7719 41.3963 61.7399 40.7025 61.7273 40.009C61.7146 39.3154 61.7082 38.6218 61.7082 37.9282V34.8067C61.92 34.7549 62.1348 34.7164 62.3514 34.6913C62.6346 34.653 62.9201 34.6335 63.2059 34.6332C63.7689 34.6332 64.1976 34.7328 64.4922 34.9319C64.7868 35.131 64.9341 35.5453 64.9341 36.1746L64.9336 46.0784Z" fill="white"/>
<path d="M78.9313 44.5756C78.9313 44.9739 78.8608 45.2693 78.7198 45.462C78.5789 45.6546 78.3549 45.8407 78.048 46.0204C77.8331 46.1393 77.6082 46.2392 77.3761 46.3191C77.0871 46.4211 76.7921 46.5048 76.4928 46.5698C75.8176 46.7161 75.1289 46.7903 74.4382 46.7913C73.5602 46.7977 72.6864 46.671 71.8462 46.4154C71.0397 46.165 70.3389 45.7857 69.7438 45.2775C69.1389 44.7577 68.6568 44.1094 68.3324 43.3796C67.9865 42.621 67.8137 41.7405 67.814 40.7381C67.814 39.6847 68.003 38.7662 68.381 37.9827C68.759 37.1992 69.2585 36.5473 69.8795 36.0271C70.5073 35.5044 71.2306 35.1095 72.009 34.8645C72.8066 34.608 73.6391 34.478 74.4767 34.4792C75.6917 34.4792 76.6549 34.6751 77.3663 35.0668C78.0778 35.4586 78.433 35.9692 78.4319 36.5985C78.4319 36.9329 78.3487 37.2219 78.1824 37.4658C78.0309 37.6951 77.8351 37.8916 77.6065 38.0437C77.2229 37.8207 76.8214 37.6303 76.4061 37.4747C75.9263 37.2891 75.3855 37.1961 74.7837 37.1955C73.7082 37.1955 72.8538 37.5038 72.2204 38.1205C71.587 38.7371 71.2701 39.5913 71.2699 40.6832C71.2699 41.2741 71.3563 41.7847 71.5291 42.2149C71.7019 42.6451 71.9354 42.9983 72.2297 43.2744C72.5221 43.5494 72.8688 43.7596 73.2475 43.8913C73.6428 44.0282 74.0584 44.0969 74.4767 44.0945C74.7284 44.0976 74.9796 44.0718 75.2255 44.0176C75.3988 43.9823 75.5666 43.924 75.7245 43.8441V42.0328H73.6695C73.5777 41.8543 73.5038 41.6672 73.4488 41.474C73.3775 41.2368 73.3418 40.9903 73.3431 40.7425C73.3431 40.28 73.4486 39.946 73.6598 39.7404C73.8709 39.5347 74.1431 39.432 74.4763 39.4323H77.7211C78.1051 39.4323 78.4021 39.5382 78.6121 39.7501C78.8222 39.962 78.9277 40.26 78.9288 40.6442L78.9313 44.5756Z" fill="white"/>
<path d="M10.334 40.6933C10.3166 40.6767 10.2979 40.6604 10.2793 40.6454H3.26794C3.58996 40.8912 3.94191 41.0948 4.31527 41.2513C4.77589 41.4513 5.28781 41.6471 5.85103 41.839L6.65779 42.1088C7.02796 42.2375 7.31565 42.3693 7.52085 42.5042C7.72578 42.6387 7.82784 42.8354 7.82784 43.0919C7.82784 43.3483 7.70067 43.5739 7.44471 43.7661C7.18875 43.9583 6.74689 44.0554 6.11995 44.0554C5.53862 44.0618 4.96138 43.9573 4.41895 43.7474C3.89974 43.5423 3.46113 43.2985 3.10311 43.0159C2.83027 43.1723 2.58938 43.3792 2.39314 43.6255C2.17552 43.8888 2.06671 44.2066 2.06671 44.5789C2.06182 44.9236 2.17346 45.2598 2.38342 45.5327C2.59429 45.809 2.88859 46.0403 3.26632 46.2264C3.68699 46.4266 4.13256 46.5692 4.59108 46.6502C5.13254 46.7498 5.68208 46.7983 6.23254 46.7953C7.89709 46.7953 9.15813 46.4582 10.0156 45.7838C10.8732 45.1095 11.3021 44.2261 11.3023 43.1337C11.3034 42.1037 10.9806 41.2902 10.334 40.6933Z" fill="url(#paint0_linear_5_565)"/>
<path d="M23.8812 43.6413C23.6245 42.7229 23.3622 41.7915 23.0943 40.8474C23.0745 40.7795 23.0562 40.712 23.0364 40.6442H19.8284C19.8994 40.9116 19.9701 41.1813 20.0406 41.4533H17.66C17.731 41.1824 17.8061 40.9127 17.8852 40.6442H14.6379C14.5683 40.8547 14.5001 41.0633 14.4334 41.27C14.2417 41.8661 14.0662 42.4215 13.9069 42.9362C13.7476 43.451 13.6227 43.8814 13.5323 44.2273C13.4677 44.4712 13.4101 44.6832 13.3593 44.8633C13.3086 45.0386 13.2829 45.2201 13.2828 45.4026C13.2828 45.8003 13.4397 46.1119 13.7534 46.3373C14.0671 46.5627 14.5504 46.6752 15.2033 46.6746C15.4448 46.6785 15.686 46.6557 15.9226 46.6068C16.1147 46.5643 16.3041 46.51 16.4896 46.4442C16.5916 46.0589 16.694 45.6607 16.7966 45.2494C16.8992 44.8381 17.0015 44.4401 17.1036 44.0554H20.5793L20.9243 45.3847C20.9811 45.5835 21.0551 45.7768 21.1455 45.9626C21.2216 46.1209 21.3333 46.2592 21.4719 46.3666C21.6266 46.4794 21.8032 46.5583 21.9903 46.5982C22.2457 46.6546 22.5068 46.6806 22.7683 46.6759C23.1908 46.6759 23.5553 46.6217 23.8618 46.5133C24.1682 46.4049 24.3985 46.2604 24.5527 46.0797C24.3613 45.3723 24.1375 44.5595 23.8812 43.6413Z" fill="url(#paint1_linear_5_565)"/>
<path d="M36.4293 41.2611C36.2124 41.0196 35.9607 40.8121 35.6825 40.6454H27.0872V44.9032C27.0872 45.5715 27.4396 46.0405 28.1443 46.3101C28.4173 46.4175 28.7001 46.4979 28.9887 46.5503C29.2957 46.608 29.6062 46.6561 29.9202 46.6945C30.2341 46.7352 30.5374 46.7588 30.8326 46.7722C31.1279 46.7856 31.3834 46.7917 31.6021 46.7917C33.3674 46.7917 34.7208 46.4866 35.6623 45.8765C36.6038 45.2663 37.0744 44.3254 37.0741 43.0537C37.073 42.3341 36.8581 41.7365 36.4293 41.2611ZM33.1266 43.8904C32.7866 44.1023 32.361 44.2082 31.8496 44.2082C31.5936 44.2082 31.3247 44.1983 31.0428 44.1786C30.8094 44.168 30.5778 44.1326 30.3519 44.0729V41.7219H31.927C32.5029 41.7219 32.9318 41.813 33.2124 41.9918C33.4931 42.1706 33.6348 42.4737 33.6348 42.8976C33.6348 43.3484 33.4654 43.6794 33.1266 43.8904Z" fill="url(#paint2_linear_5_565)"/>
<path d="M48.0553 40.6454C48.0531 41.8041 47.8165 42.6711 47.3453 43.2463C46.8742 43.8215 46.2341 44.1106 45.4252 44.1135C44.6306 44.1135 43.9968 43.8245 43.5237 43.2463C43.0507 42.6681 42.814 41.8012 42.8138 40.6454H39.3575C39.3597 41.6272 39.5131 42.5007 39.818 43.2658C40.125 44.0358 40.5474 44.6843 41.0852 45.2112C41.6334 45.7442 42.2877 46.1547 43.0053 46.4158C43.7478 46.6913 44.5545 46.8293 45.4252 46.8299C46.296 46.8304 47.1023 46.6949 47.8443 46.4235C48.5632 46.1689 49.2207 45.7654 49.7741 45.2392C50.3184 44.7183 50.7441 44.0695 51.0511 43.293C51.3562 42.5217 51.5097 41.6387 51.5115 40.6442L48.0553 40.6454Z" fill="url(#paint3_linear_5_565)"/>
<path d="M57.6088 41.2997C57.6064 41.0798 57.6019 40.8624 57.5946 40.6454H54.3915V45.0373C54.3915 45.3587 54.4296 45.6196 54.5069 45.8184C54.5724 46.0017 54.685 46.1645 54.8334 46.2902C54.9897 46.4127 55.175 46.4925 55.3712 46.5218C55.6184 46.5627 55.8687 46.5822 56.1192 46.5799C56.4049 46.5794 56.6902 46.56 56.9734 46.5218C57.19 46.4959 57.4049 46.4573 57.6169 46.406V43.4198C57.6172 42.726 57.6145 42.0193 57.6088 41.2997ZM61.7443 40.6454C61.7605 41.1268 61.7865 41.6085 61.8224 42.0905L61.7269 42.1088C61.547 41.6467 61.3818 41.2395 61.2271 40.8856L61.1214 40.6454H58.2507C58.3751 40.9217 58.5087 41.2099 58.6557 41.5114L60.5564 45.4042C60.8248 45.9431 61.1705 46.2833 61.5936 46.4247C62.027 46.568 62.4807 46.6395 62.937 46.6364C63.4106 46.6364 63.8169 46.5885 64.1561 46.4926C64.4952 46.3967 64.7546 46.2586 64.9345 46.0785V40.6454H61.7443Z" fill="url(#paint4_linear_5_565)"/>
<path d="M73.3455 40.6454C73.3431 40.6767 73.3431 40.7084 73.3431 40.7413C73.3416 40.9891 73.3772 41.2357 73.4488 41.4728C73.5036 41.666 73.5773 41.8533 73.6687 42.032H75.7241V43.8433C75.5658 43.923 75.3978 43.9813 75.2243 44.0169C74.9784 44.0709 74.7271 44.0965 74.4754 44.0933C74.0572 44.0954 73.6417 44.0267 73.2463 43.8901C72.868 43.7581 72.5217 43.5478 72.2297 43.2728C71.9346 42.9978 71.7009 42.6446 71.5287 42.2133C71.3564 41.782 71.27 41.2715 71.2695 40.682C71.2695 40.6686 71.2695 40.6556 71.2695 40.6438H67.8132C67.8132 40.6751 67.8132 40.708 67.8132 40.7397C67.8132 41.7421 67.9859 42.6219 68.3312 43.3788C68.6765 44.1358 69.1469 44.7686 69.7422 45.2771C70.3362 45.7851 71.0373 46.1644 71.8454 46.415C72.6856 46.6704 73.5594 46.7972 74.4374 46.7909C74.7869 46.7906 75.1361 46.7713 75.4835 46.7332C75.8221 46.6964 76.1585 46.6422 76.4915 46.5706C76.7912 46.506 77.0863 46.4221 77.3752 46.3195C77.6074 46.2398 77.8322 46.14 78.0471 46.0212C78.3541 45.841 78.5784 45.6546 78.7198 45.462C78.8613 45.2694 78.9317 44.9741 78.9309 44.5761V40.6462L73.3455 40.6454Z" fill="url(#paint5_linear_5_565)"/>
</g>
<defs>
<linearGradient id="paint0_linear_5_565" x1="6.64888" y1="47.1794" x2="7.08236" y2="8.80657" gradientUnits="userSpaceOnUse">
<stop stop-color="white"/>
<stop offset="1"/>
</linearGradient>
<linearGradient id="paint1_linear_5_565" x1="18.8997" y1="47.318" x2="19.3332" y2="8.94513" gradientUnits="userSpaceOnUse">
<stop stop-color="white"/>
<stop offset="1"/>
</linearGradient>
<linearGradient id="paint2_linear_5_565" x1="32.0169" y1="47.4659" x2="32.4508" y2="9.09307" gradientUnits="userSpaceOnUse">
<stop stop-color="white"/>
<stop offset="1"/>
</linearGradient>
<linearGradient id="paint3_linear_5_565" x1="45.3564" y1="47.6166" x2="45.7902" y2="9.24385" gradientUnits="userSpaceOnUse">
<stop stop-color="white"/>
<stop offset="1"/>
</linearGradient>
<linearGradient id="paint4_linear_5_565" x1="59.6132" y1="47.778" x2="60.0466" y2="9.4052" gradientUnits="userSpaceOnUse">
<stop stop-color="white"/>
<stop offset="1"/>
</linearGradient>
<linearGradient id="paint5_linear_5_565" x1="73.3135" y1="47.9329" x2="73.7474" y2="9.56005" gradientUnits="userSpaceOnUse">
<stop stop-color="white"/>
<stop offset="1"/>
</linearGradient>
<clipPath id="clip0_5_565">
<rect width="81" height="58" fill="white"/>
</clipPath>
</defs>
</svg>
