<svg width="14" height="12" viewBox="0 0 14 12" fill="none" xmlns="http://www.w3.org/2000/svg">
<path d="M7.72702 11.4603C7.67472 11.4081 7.63323 11.346 7.60492 11.2777C7.57661 11.2094 7.56204 11.1362 7.56204 11.0623C7.56204 10.9884 7.57661 10.9152 7.60492 10.8469C7.63323 10.7786 7.67472 10.7166 7.72702 10.6644L11.8298 6.56232L0.812486 6.56232C0.663301 6.56232 0.520228 6.50306 0.414738 6.39757C0.309249 6.29208 0.249986 6.14901 0.249986 5.99982C0.249986 5.85064 0.309249 5.70757 0.414738 5.60208C0.520228 5.49659 0.663301 5.43732 0.812486 5.43732L11.8298 5.43732L7.72702 1.33529C7.62147 1.22975 7.56217 1.08659 7.56217 0.937324C7.56217 0.788057 7.62147 0.644904 7.72702 0.539356C7.83256 0.433808 7.97572 0.374512 8.12499 0.374512C8.27425 0.374512 8.41741 0.433808 8.52295 0.539356L13.5855 5.60186C13.6378 5.6541 13.6792 5.71613 13.7075 5.78442C13.7359 5.85271 13.7504 5.9259 13.7504 5.99982C13.7504 6.07375 13.7359 6.14694 13.7075 6.21523C13.6792 6.28351 13.6378 6.34555 13.5855 6.39779L8.52295 11.4603C8.47071 11.5126 8.40868 11.5541 8.34039 11.5824C8.2721 11.6107 8.19891 11.6253 8.12499 11.6253C8.05106 11.6253 7.97787 11.6107 7.90958 11.5824C7.84129 11.5541 7.77926 11.5126 7.72702 11.4603Z" fill="#D20023"/>
</svg>
